<?xml version="1.0" standalone="no"?>
<!DOCTYPE svg PUBLIC "-//W3C//DTD SVG 20010904//EN"
 "http://www.w3.org/TR/2001/REC-SVG-20010904/DTD/svg10.dtd">
<svg version="1.0" xmlns="http://www.w3.org/2000/svg"
 width="400.000000pt" height="400.000000pt" viewBox="0 0 400.000000 400.000000"
 preserveAspectRatio="xMidYMid meet">
<metadata>
Created by potrace 1.14, written by Peter Selinger 2001-2017
</metadata>
<g transform="translate(0.000000,400.000000) scale(0.100000,-0.100000)"
fill="#000000" stroke="none">
<path d="M1980 2799 c0 -6 -5 -7 -10 -4 -6 3 -13 -1 -16 -9 -3 -9 -9 -14 -13
-12 -4 3 -8 -13 -8 -35 0 -21 4 -39 9 -39 5 0 7 -4 4 -9 -3 -5 1 -14 9 -21 11
-9 12 -16 5 -25 -8 -9 -8 -15 0 -20 6 -4 7 -13 2 -23 -5 -9 -9 -33 -10 -52 -5
-83 -20 -145 -23 -92 -2 22 -4 38 -9 47 -1 3 -4 10 -5 15 -1 6 -3 11 -5 13 -3
3 -10 38 -15 75 -3 17 -1 32 5 32 5 0 7 7 4 15 -4 8 -2 15 4 15 10 0 0 65 -11
77 -13 12 -88 10 -104 -4 -10 -8 -12 -11 -3 -7 10 5 8 0 -5 -15 -16 -19 -17
-24 -5 -31 13 -8 13 -10 0 -10 -12 0 -12 -2 -2 -9 8 -4 14 -12 14 -17 1 -22
12 -35 25 -30 8 3 11 1 8 -4 -3 -6 0 -10 7 -10 10 0 10 -2 0 -9 -19 -11 -19
-15 -4 -34 7 -8 9 -18 5 -20 -5 -3 -8 -35 -6 -72 2 -42 -1 -64 -7 -60 -5 3
-10 13 -10 21 0 8 -4 12 -10 9 -6 -4 -7 1 -3 11 4 12 3 15 -5 10 -8 -5 -10 -2
-6 8 3 9 2 16 -4 16 -6 0 -9 24 -7 60 3 71 -14 97 -60 95 -38 -2 -67 -14 -59
-26 3 -5 1 -9 -4 -9 -14 0 -9 -65 7 -83 7 -10 21 -17 31 -17 16 0 20 -10 21
-53 0 -9 4 -15 8 -13 4 3 8 -12 8 -32 1 -20 6 -38 12 -40 6 -2 9 -8 5 -13 -3
-5 1 -23 10 -39 8 -17 11 -28 7 -25 -5 2 2 -28 15 -67 13 -39 21 -74 19 -79
-3 -4 -1 -10 5 -14 5 -3 10 -15 10 -26 0 -10 5 -19 10 -19 6 0 10 -6 10 -13 0
-14 35 -47 50 -47 6 0 10 -5 10 -11 0 -8 6 -7 17 2 9 8 14 9 10 3 -9 -16 16
-21 101 -18 55 1 78 6 94 20 14 13 19 14 14 4 -5 -8 5 -1 20 15 34 35 52 72
48 98 -1 9 1 17 5 17 8 0 10 9 13 54 1 14 6 22 12 19 5 -4 7 3 4 15 -4 12 -2
22 4 22 6 0 8 9 5 20 -3 11 -1 20 5 20 6 0 8 9 5 20 -3 11 -2 18 3 15 6 -4 19
38 21 72 1 5 5 15 10 24 5 10 4 21 -4 28 -9 10 -8 11 7 5 13 -5 17 -4 13 3 -9
14 2 45 13 38 15 -9 41 21 46 54 4 20 2 31 -4 27 -6 -4 -8 2 -5 14 4 14 0 20
-11 20 -9 0 -16 4 -16 9 0 14 -67 6 -82 -10 -17 -17 -23 -94 -9 -103 6 -4 8
-13 5 -21 -4 -8 -10 -12 -15 -9 -5 3 -9 -1 -9 -8 0 -8 -9 -32 -21 -53 l-21
-40 4 72 c2 39 0 69 -5 66 -5 -3 -5 3 0 13 11 23 10 44 -1 64 -5 8 -6 12 -1 8
13 -12 47 12 41 28 -3 8 -2 13 3 10 5 -3 11 5 13 19 3 14 1 25 -3 25 -5 0 -6
7 -3 15 4 8 1 15 -6 15 -6 0 -8 5 -5 10 7 11 5 12 -40 15 -16 1 -36 -3 -44 -9
-8 -6 -17 -10 -20 -9 -3 0 -5 -3 -3 -8 1 -5 -2 -9 -6 -9 -11 0 -7 -43 7 -78 7
-18 18 -29 24 -25 6 3 7 1 3 -6 -4 -6 -12 -9 -17 -6 -7 5 -13 -16 -8 -27 1 -2
-5 -19 -14 -39 -11 -27 -12 -40 -4 -48 8 -8 8 -11 -1 -11 -7 0 -12 -7 -12 -17
0 -9 -3 -13 -7 -9 -8 8 -12 29 -14 76 -1 19 -6 41 -12 48 -6 8 -6 12 2 12 8 0
9 5 3 16 -5 9 -7 26 -4 37 4 15 2 18 -9 13 -8 -4 -3 1 9 11 23 19 43 101 22
88 -6 -3 -7 0 -4 8 4 12 -23 46 -33 40 -1 -2 -4 -3 -5 -2 -22 6 -38 5 -38 -2z
m59 -685 c4 3 13 1 21 -5 11 -6 12 -9 2 -9 -7 0 -11 -3 -8 -8 7 -11 -100 -5
-121 7 -17 10 -17 10 2 12 33 1 79 10 85 15 2 3 6 0 8 -5 2 -6 7 -9 11 -7z"/>
<path d="M1458 1861 c-14 -9 -19 -10 -13 -2 10 18 -22 0 -51 -28 -12 -11 -25
-17 -28 -14 -3 4 -6 -1 -6 -11 0 -9 -4 -15 -8 -12 -7 4 -43 -54 -46 -74 -1 -3
-5 -10 -8 -16 -4 -6 -7 -33 -6 -60 1 -27 -1 -55 -5 -61 -5 -8 -3 -13 3 -13 6
0 10 -6 9 -12 -3 -27 1 -39 13 -32 6 4 8 3 4 -4 -9 -15 26 -75 52 -88 12 -6
19 -14 15 -18 -4 -4 0 -4 10 0 10 4 19 0 23 -9 3 -8 17 -17 32 -20 15 -3 36
-9 46 -13 12 -5 17 -4 13 3 -3 5 0 10 8 10 8 0 12 -4 9 -9 -6 -9 39 -4 56 7 5
3 10 2 10 -4 0 -15 98 37 112 59 7 11 18 20 25 20 7 0 13 5 13 11 0 5 -6 7
-12 4 -7 -4 -6 -1 3 7 22 19 37 49 34 75 -1 12 2 20 6 17 15 -9 0 149 -16 166
-8 9 -15 21 -15 27 0 6 -16 24 -36 39 -19 16 -41 35 -49 42 -28 25 -166 35
-197 13z m125 -108 c23 -22 43 -63 46 -99 1 -9 6 -12 14 -8 9 6 9 5 0 -7 -6
-8 -10 -27 -9 -42 2 -15 -3 -32 -10 -38 -8 -6 -14 -17 -14 -24 0 -7 -7 -18
-15 -25 -8 -7 -13 -16 -10 -19 2 -4 -1 -8 -8 -9 -7 -1 -25 -3 -40 -6 -20 -3
-34 2 -51 19 -13 13 -27 21 -32 17 -4 -4 -4 -2 -1 4 3 6 0 22 -8 37 -8 15 -12
27 -10 27 1 0 -1 16 -5 35 -5 22 -4 33 2 29 5 -3 8 2 7 12 -4 23 29 94 43 94
5 0 6 5 2 12 -4 6 -3 8 2 5 6 -3 16 -2 24 3 18 11 49 4 73 -17z"/>
<path d="M789 1859 c-8 -27 -4 -69 7 -69 8 0 14 -5 14 -11 0 -6 7 -9 15 -5 10
4 15 -1 14 -17 0 -12 1 -39 3 -59 2 -21 1 -38 -2 -38 -3 0 -6 -9 -6 -20 0 -11
4 -20 8 -20 5 0 4 -9 -2 -20 -6 -11 -7 -20 -2 -20 4 0 8 -9 8 -20 0 -11 -3
-20 -6 -20 -3 0 -5 -15 -5 -32 0 -25 -5 -34 -20 -37 -26 -4 -35 -20 -30 -50 4
-25 25 -54 25 -35 0 5 9 10 20 10 11 0 20 -3 20 -6 0 -3 14 -5 30 -5 17 0 30
4 30 8 0 4 9 3 20 -3 11 -6 20 -7 20 -2 0 5 17 6 39 2 35 -6 39 -5 36 12 -2
10 0 16 5 13 14 -8 18 8 9 33 -5 14 -17 22 -32 22 -20 0 -24 6 -26 33 -4 69 0
87 19 87 27 0 80 -21 80 -32 0 -5 5 -6 10 -3 6 4 10 3 9 -2 -4 -24 2 -53 10
-48 6 3 8 -4 6 -15 -2 -11 1 -20 6 -20 6 0 7 -5 4 -10 -9 -14 4 -52 16 -45 5
3 6 0 3 -8 -3 -8 2 -17 10 -20 9 -4 16 -3 16 1 0 4 29 5 65 4 44 -3 65 0 65 8
0 6 4 9 9 6 5 -4 9 8 8 26 -2 24 -7 34 -21 36 -20 4 -54 32 -40 32 5 0 3 5 -3
11 -6 6 -9 18 -6 25 3 8 0 14 -7 14 -6 0 -8 5 -5 10 3 6 1 10 -4 10 -6 0 -10
3 -9 8 0 4 -2 15 -7 25 -4 10 -2 23 5 32 6 8 9 19 5 25 -3 5 0 12 7 15 18 7
22 56 6 67 -10 6 -10 8 1 8 11 0 11 3 0 17 -12 14 -12 16 1 9 8 -4 6 0 -4 8
-11 9 -16 16 -11 16 6 0 -4 12 -20 28 l-30 27 -183 2 c-140 2 -181 -1 -175
-10 4 -7 0 -7 -10 2 -9 7 -18 12 -18 10z m301 -104 c22 -20 15 -51 -14 -67
-33 -18 -84 -18 -92 1 -11 26 -11 51 -1 44 6 -4 8 1 4 11 -4 10 -4 22 -1 27 8
14 84 2 104 -16z"/>
<path d="M1790 1852 c-16 -6 -12 -58 7 -73 15 -12 16 -12 8 1 -7 12 -6 13 7 3
8 -7 18 -10 21 -6 9 8 9 7 9 -147 0 -161 0 -162 -12 -155 -5 3 -10 0 -10 -7 0
-9 -2 -10 -8 -2 -11 19 -28 -6 -27 -41 0 -28 3 -30 43 -36 23 -3 42 -2 42 3 0
5 9 4 20 -2 11 -6 20 -7 20 -3 0 4 45 6 100 3 55 -3 100 -1 100 3 0 4 9 3 20
-3 11 -6 20 -7 20 -2 0 5 11 7 25 4 29 -5 28 -8 30 100 1 67 -2 85 -17 100
-10 10 -18 13 -18 8 0 -6 -3 -9 -7 -9 -24 4 -33 -4 -32 -28 2 -70 -16 -88 -90
-92 -56 -2 -52 -9 -55 84 0 28 -5 56 -10 64 -6 9 -5 12 2 7 14 -8 11 96 -3
106 -6 5 -5 8 3 8 6 0 12 6 12 13 0 8 10 22 22 33 19 16 20 16 9 1 -12 -15
-12 -17 2 -12 21 9 27 51 10 72 -8 11 -11 12 -7 3 6 -12 5 -13 -7 -3 -14 12
-198 15 -229 5z"/>
<path d="M2244 1849 c-3 -5 -9 -7 -14 -4 -10 6 -7 -45 4 -63 6 -11 11 -11 24
0 10 8 13 8 9 1 -4 -6 -3 -13 3 -15 12 -4 19 -148 8 -148 -4 0 -4 -10 0 -22 5
-13 7 -34 6 -48 -7 -65 -11 -75 -35 -80 -19 -5 -25 -13 -27 -42 l-3 -36 65 -4
c37 -1 66 1 66 5 0 4 9 3 20 -3 11 -6 20 -7 20 -2 0 5 12 7 28 5 15 -2 72 -5
127 -6 78 -2 103 1 113 13 10 11 12 11 6 1 -4 -9 -3 -12 4 -7 14 9 12 167 -2
159 -6 -3 -5 0 2 8 16 17 15 30 -2 23 -8 -3 -17 0 -21 6 -5 8 -12 5 -22 -7
-14 -17 -14 -17 -9 2 6 19 5 19 -8 2 -8 -10 -13 -32 -11 -48 2 -16 -1 -29 -6
-29 -6 0 -8 -4 -5 -8 9 -16 -30 -29 -82 -28 -29 0 -52 -3 -52 -9 0 -5 -7 -2
-15 8 -7 11 -11 25 -8 33 3 8 0 20 -6 28 -6 7 -7 16 -3 20 4 4 7 13 7 19 0 20
41 15 54 -5 10 -15 10 -18 0 -13 -7 5 -10 3 -7 -6 3 -8 15 -20 29 -26 40 -21
50 5 47 122 -3 88 -5 100 -22 103 -13 3 -16 0 -10 -10 6 -10 5 -10 -9 1 -15
12 -21 9 -18 -11 0 -5 -4 -8 -9 -8 -5 0 -10 -6 -10 -14 0 -12 -20 -26 -39 -26
-3 0 -6 19 -4 42 2 39 18 62 35 52 4 -3 8 0 8 7 0 8 4 8 13 1 6 -5 25 -9 40
-7 20 2 36 -5 57 -25 18 -18 25 -30 17 -33 -9 -3 -8 -9 3 -22 13 -17 13 -18 0
-11 -8 4 -6 0 4 -8 24 -19 52 -21 62 -4 4 7 9 50 10 96 1 69 -1 82 -13 78 -8
-3 -12 -2 -9 3 3 4 -87 8 -200 8 -112 0 -207 -4 -210 -8z"/>
<path d="M2735 1850 c3 -5 -5 -6 -17 -3 -13 3 -20 2 -16 -2 4 -5 3 -14 -3 -22
-9 -10 -8 -13 2 -13 12 0 12 -2 0 -9 -11 -7 -9 -10 8 -16 26 -8 63 -43 114
-110 45 -59 43 -74 -26 -147 -10 -10 -15 -24 -11 -31 4 -7 3 -9 -1 -4 -5 4
-16 0 -25 -8 -9 -8 -27 -16 -41 -18 -18 -3 -25 -11 -27 -32 -2 -15 1 -32 7
-38 10 -10 91 -16 91 -7 0 3 18 4 40 2 62 -6 85 3 85 33 0 14 -4 25 -8 25 -5
0 -5 5 -2 10 3 6 -1 10 -9 10 -21 0 -10 25 20 45 23 15 25 14 31 -2 4 -10 11
-21 17 -25 7 -4 5 -13 -5 -25 -8 -10 -14 -25 -13 -33 1 -8 2 -21 3 -28 0 -7 5
-11 10 -7 5 3 13 1 16 -5 5 -8 11 -8 19 -1 7 6 16 8 19 4 13 -13 179 -2 194
13 11 11 12 14 1 14 -10 0 -10 2 1 9 12 8 12 12 2 25 -8 9 -22 16 -32 16 -9 0
-27 13 -39 30 -12 16 -26 29 -33 27 -7 -1 -11 5 -9 15 1 9 -10 26 -25 38 -16
12 -27 25 -26 28 0 4 -4 6 -10 4 -7 -2 -9 0 -5 3 4 4 3 15 -2 25 -9 17 -6 23
40 78 6 6 8 12 4 12 -4 0 5 9 20 21 23 18 41 26 69 28 5 1 5 6 2 11 -3 6 -1
10 4 10 6 0 11 5 11 11 0 5 -4 8 -9 5 -4 -3 -6 5 -4 18 5 23 4 23 -91 23 -53
0 -96 -3 -96 -8 0 -4 -13 -4 -29 1 -36 10 -222 10 -216 0z m243 -82 c2 -9 -4
-18 -12 -21 -17 -7 -41 17 -32 32 9 14 41 6 44 -11z"/>
<path d="M1503 1343 c-7 -2 -13 -11 -13 -19 0 -15 -21 -15 -32 0 -4 6 -12 5
-21 -3 -12 -9 -16 -9 -20 1 -4 8 -6 7 -6 -4 -1 -10 4 -18 10 -18 5 0 7 -5 3
-12 -5 -8 -11 -6 -19 5 -10 14 -14 12 -28 -18 -10 -21 -12 -37 -7 -40 6 -3 10
-11 10 -16 0 -6 -4 -7 -10 -4 -5 3 -17 2 -27 -3 -18 -11 -27 -42 -11 -42 6 0
8 7 4 15 -3 8 -1 15 4 15 6 0 10 -4 10 -10 0 -5 10 -9 21 -7 12 1 23 -3 25 -8
4 -9 -18 -13 -78 -16 -10 0 -20 -4 -23 -10 -4 -5 2 -6 11 -2 13 5 15 3 9 -8
-8 -12 -6 -12 8 0 20 16 79 21 88 8 3 -5 9 -1 12 8 4 9 3 14 -1 12 -4 -3 -15
6 -25 19 -14 19 -15 24 -4 24 8 0 17 -7 21 -15 3 -8 11 -15 18 -14 10 0 10 2
0 6 -6 2 -10 9 -6 14 3 5 0 9 -6 9 -6 0 -8 5 -5 10 5 8 12 7 23 -2 13 -11 14
-11 7 1 -6 11 -4 13 11 7 10 -4 15 -4 11 0 -8 8 21 44 36 44 5 0 3 -8 -4 -17
-12 -16 -12 -17 2 -6 9 7 20 10 25 6 5 -4 3 -1 -3 7 -15 17 -17 30 -4 30 5 0
13 -10 17 -22 l6 -21 13 22 c11 22 12 22 20 5 5 -11 7 -25 6 -31 -1 -7 3 -13
9 -13 6 0 8 5 5 10 -3 6 -3 10 2 10 12 0 52 -79 43 -85 -5 -3 -10 1 -13 7 -2
7 -4 1 -3 -13 l1 -27 22 24 c24 26 34 29 49 15 5 -6 16 1 28 17 l20 27 -22
-19 c-12 -11 -25 -17 -28 -14 -3 3 6 15 20 26 22 16 23 21 10 26 -9 3 -20 4
-25 0 -5 -3 -9 -1 -9 5 0 5 3 11 8 14 4 2 2 2 -5 1 -7 -2 -15 1 -18 6 -4 6 -1
10 4 10 6 0 11 5 11 11 0 8 -4 8 -14 0 -9 -7 -17 -8 -20 -2 -3 5 -3 11 1 14 5
2 3 2 -4 1 -7 -2 -15 1 -18 6 -4 6 0 10 7 10 8 0 6 5 -5 11 -13 7 -22 7 -31 0
-10 -8 -18 -6 -31 9 -18 20 -19 20 -29 3 -12 -20 -50 -28 -43 -9 3 6 10 10 16
8 7 -1 10 2 6 8 -3 5 -7 10 -8 9 -1 0 -8 -3 -14 -6z m77 -28 c10 -12 16 -13
27 -4 7 7 16 9 20 5 3 -3 1 -6 -5 -6 -7 0 -12 -4 -12 -10 0 -5 4 -9 9 -7 5 1
24 -14 42 -33 19 -19 41 -34 49 -32 8 1 2 -9 -13 -23 -36 -32 -43 -32 -63 7
-9 18 -30 45 -45 61 -24 24 -30 26 -35 12 -6 -14 -8 -14 -19 2 -11 15 -16 14
-55 -20 -24 -20 -46 -35 -48 -32 -3 3 -11 0 -19 -7 -11 -9 -18 -7 -31 7 -16
18 -16 18 2 4 18 -13 18 -12 9 6 -14 26 -6 50 12 35 9 -7 16 -6 25 5 7 8 9 15
6 15 -4 0 -4 5 -1 10 4 6 12 7 18 3 20 -13 89 -9 94 4 7 17 18 16 33 -2z
m-210 -115 c0 -5 -2 -10 -4 -10 -3 0 -8 5 -11 10 -3 6 -1 10 4 10 6 0 11 -4
11 -10z"/>
<path d="M1549 1302 c-13 -15 -12 -16 3 -4 14 11 18 10 30 -6 13 -19 18 -22
39 -22 5 0 8 -4 4 -9 -3 -5 1 -16 9 -24 8 -8 12 -18 8 -21 -3 -4 1 -4 11 0 12
4 16 2 14 -7 -2 -8 -2 -11 0 -6 3 4 8 5 13 2 4 -3 3 6 -3 19 -8 16 -14 21 -19
13 -4 -7 -8 -9 -9 -4 -6 31 -20 57 -29 52 -4 -3 -19 4 -33 15 -23 19 -26 19
-38 2z"/>
<path d="M1443 1305 c11 -13 -23 -45 -41 -37 -14 5 -15 4 -2 -10 16 -16 34
-18 47 -3 4 4 2 5 -4 1 -7 -4 -13 -3 -13 2 0 16 13 22 25 12 8 -7 17 -4 29 9
17 19 17 19 -1 17 -10 -2 -25 1 -33 7 -8 6 -12 7 -7 2z m37 -21 c0 -8 -19 -13
-24 -6 -3 5 1 9 9 9 8 0 15 -2 15 -3z"/>
<path d="M896 1326 c6 -17 5 -17 -17 -6 -17 10 -24 10 -27 1 -3 -9 -7 -9 -18
0 -11 9 -15 8 -20 -5 -8 -21 -22 -20 -26 2 -3 14 -5 13 -10 -6 -3 -12 -2 -20
2 -17 5 3 15 -2 23 -10 12 -11 17 -12 20 -2 3 7 6 5 6 -5 1 -20 12 -23 27 -8
8 8 15 6 25 -6 12 -15 12 -17 -1 -12 -8 3 -24 2 -35 -3 l-20 -8 20 -1 c20 -1
20 -1 1 -15 -11 -8 -15 -15 -10 -15 6 0 15 5 22 12 7 7 12 8 12 2 0 -5 -5 -15
-12 -22 -9 -9 -9 -15 1 -24 11 -11 13 -10 8 4 -8 22 9 33 17 12 4 -9 1 -23 -5
-30 -9 -12 -15 -12 -28 -2 -14 12 -14 11 -2 -4 12 -16 11 -18 -5 -19 -12 0
-14 -2 -6 -6 8 -3 28 9 46 26 18 17 35 28 39 25 11 -11 8 -26 -3 -19 -6 3 -7
-1 -4 -10 5 -11 2 -14 -12 -9 -16 6 -17 5 -6 -7 11 -12 15 -11 26 3 7 10 17
14 21 10 5 -4 -2 10 -14 31 -12 20 -18 37 -12 37 6 0 17 -11 23 -25 6 -14 15
-25 20 -25 5 0 -1 14 -13 32 -18 25 -19 30 -6 25 11 -4 14 -2 10 9 -6 16 -23
19 -23 4 0 -5 -5 -10 -12 -10 -8 0 -6 6 4 17 14 14 20 14 33 3 14 -11 16 -11
13 1 -2 8 5 14 14 14 9 0 20 4 25 9 4 5 3 6 -4 3 -6 -4 -14 -1 -17 5 -3 10 -8
8 -16 -4 -6 -9 -17 -15 -25 -12 -8 4 -12 10 -9 15 3 5 9 7 14 4 5 -3 11 -1 15
5 3 5 17 7 31 4 14 -4 24 -2 24 5 0 6 -8 8 -17 4 -16 -6 -16 -5 -4 10 9 11 10
17 2 17 -6 0 -11 -5 -11 -10 0 -13 -32 -9 -42 5 -5 6 -11 6 -19 -2 -10 -10
-15 -9 -26 5 -12 16 -13 16 -7 -2z m-41 -16 c4 6 13 7 23 2 20 -10 33 -10 49
1 6 4 14 3 18 -3 4 -6 11 -7 17 -4 7 4 8 2 4 -5 -4 -6 -11 -9 -16 -6 -4 3 -13
-2 -20 -10 -7 -8 -9 -15 -4 -15 5 0 1 -7 -10 -15 -10 -7 -15 -18 -11 -24 3 -6
0 -11 -7 -11 -10 0 -9 -3 2 -10 8 -5 11 -13 6 -17 -8 -8 -21 11 -14 21 2 3 -6
12 -17 21 -14 10 -15 13 -4 9 26 -8 31 11 8 32 -15 14 -22 15 -28 6 -5 -9 -11
-4 -20 14 -10 24 -10 26 3 15 10 -8 16 -9 21 -1z"/>
<path d="M875 1292 c11 -13 21 -19 23 -13 2 6 7 9 12 6 4 -3 14 3 21 12 12 15
12 16 -1 8 -23 -14 -43 -15 -60 -2 -8 6 -6 1 5 -11z"/>
<path d="M1192 1331 c2 -7 -3 -16 -11 -19 -10 -3 -11 0 -5 9 6 12 5 12 -8 1
-9 -7 -18 -9 -20 -5 -3 4 -3 2 -1 -6 2 -9 -3 -11 -14 -7 -17 6 -17 5 0 -8 9
-7 17 -16 17 -19 0 -4 -8 -4 -17 -1 -10 4 -5 -3 11 -14 17 -12 33 -19 37 -16
4 2 11 0 14 -6 5 -8 12 -7 23 2 14 11 15 10 9 -5 -4 -10 -7 -21 -7 -23 0 -3
-9 0 -19 6 -11 5 -27 7 -37 3 -13 -5 -15 -3 -9 8 4 8 5 11 0 7 -4 -4 -14 0
-22 10 -8 9 -11 11 -7 3 3 -7 0 -18 -7 -23 -11 -8 -10 -8 4 -4 12 4 17 2 14
-6 -2 -7 -11 -12 -20 -12 -9 1 -13 -4 -10 -12 3 -8 9 -11 14 -8 5 3 9 0 9 -5
0 -6 -4 -11 -10 -11 -5 0 -10 -5 -10 -11 0 -8 5 -7 15 1 9 7 14 19 11 27 -4 8
4 17 20 23 34 13 37 13 22 -4 -7 -8 -16 -12 -20 -10 -3 2 -5 -12 -3 -31 3 -30
1 -34 -11 -24 -18 15 -18 2 0 -17 22 -21 25 -18 20 20 -4 37 10 56 29 37 6 -6
15 -11 21 -11 5 0 1 6 -10 14 -10 8 -15 18 -11 22 4 5 12 2 17 -6 7 -11 10
-11 10 -2 0 7 11 24 25 37 13 14 20 25 14 25 -6 0 -7 5 -4 10 4 6 11 8 16 5
14 -9 29 4 23 20 -4 8 -10 12 -15 9 -5 -3 -9 -1 -9 5 0 5 6 11 13 14 6 2 -4 4
-24 3 -29 -1 -36 -5 -34 -18 3 -11 -3 -16 -16 -15 -21 1 -25 13 -6 20 9 4 9 7
-1 18 -11 12 -13 12 -10 0z m61 -28 c-4 -9 -2 -14 3 -10 6 3 16 1 24 -4 13 -9
13 -10 0 -8 -8 1 -23 -1 -33 -6 -15 -6 -16 -10 -5 -17 10 -8 9 -9 -4 -4 -10 3
-20 1 -23 -5 -7 -11 -25 -2 -25 12 0 6 4 7 10 4 6 -4 7 1 4 12 -5 15 -4 16 5
3 10 -13 12 -13 20 0 5 8 8 17 5 21 -3 6 3 11 23 18 1 1 -1 -6 -4 -16z m-72
-39 c-6 -11 -11 -14 -11 -6 0 7 -4 11 -8 8 -7 -4 -8 14 -3 44 1 2 8 -3 17 -12
12 -12 14 -20 5 -34z"/>
<path d="M1166 1287 c3 -10 9 -15 12 -12 3 3 0 11 -7 18 -10 9 -11 8 -5 -6z"/>
<path d="M1810 1325 c0 -6 5 -16 12 -23 7 -7 8 -12 2 -12 -5 0 -15 5 -22 12
-7 7 -12 10 -13 8 0 -3 -2 -12 -4 -21 -1 -9 2 -16 9 -17 6 0 20 -3 31 -6 11
-2 22 -5 25 -5 3 -1 -1 -5 -9 -10 -12 -8 -12 -12 -2 -25 7 -8 10 -20 6 -26 -3
-5 -1 -10 5 -10 6 0 8 -6 4 -12 -6 -10 -4 -10 7 0 20 19 34 14 16 -5 -14 -16
-14 -20 4 -42 11 -13 22 -21 26 -17 4 3 -3 14 -16 22 -17 13 -20 19 -10 30 6
8 16 14 21 14 6 0 6 -6 -1 -14 -9 -10 -8 -15 4 -20 26 -10 46 4 39 28 -6 18
-5 19 9 8 12 -10 17 -10 23 -1 4 8 3 9 -5 5 -21 -13 -23 22 -2 43 12 12 21 25
21 29 0 5 7 9 15 9 8 0 15 -5 15 -11 0 -6 4 -4 9 4 6 8 7 18 5 22 -3 4 -1 8 3
8 5 0 14 -9 20 -19 12 -20 28 -22 51 -7 9 5 15 1 19 -13 5 -19 15 -25 36 -22
12 2 8 -17 -5 -22 -10 -4 -10 -6 -1 -6 7 -1 17 9 24 20 8 15 8 19 0 15 -6 -4
-11 -2 -11 3 0 6 -5 11 -11 11 -5 0 -7 -5 -3 -12 4 -7 3 -8 -4 -4 -15 9 -5 33
13 33 8 0 15 -4 15 -9 0 -4 5 -8 12 -8 9 0 9 3 0 12 -16 16 -15 31 1 22 6 -4
4 2 -6 13 -9 11 -14 23 -10 28 5 4 -2 3 -14 -4 -16 -8 -23 -8 -26 2 -3 7 -6 5
-6 -5 -1 -10 -5 -18 -11 -18 -5 0 -8 6 -6 13 1 6 1 9 -1 5 -3 -5 -9 -8 -14 -8
-6 0 -7 6 -3 13 5 8 2 8 -9 -2 -14 -11 -17 -11 -17 0 0 12 -2 12 -9 0 -5 -7
-11 -9 -13 -5 -3 5 -3 3 -1 -4 1 -8 -3 -12 -9 -9 -7 2 -12 9 -11 14 1 5 -4 10
-12 10 -8 0 -11 -5 -8 -10 4 -6 0 -8 -10 -4 -9 3 -19 2 -22 -3 -4 -6 -11 -10
-17 -10 -7 0 -6 6 2 15 9 10 9 15 1 15 -6 0 -11 -5 -11 -11 0 -8 -4 -8 -14 0
-10 8 -16 9 -21 1 -3 -6 -11 -8 -16 -5 -5 4 -9 1 -9 -4 0 -6 -5 -11 -11 -11
-6 0 -9 6 -6 13 3 8 -4 13 -19 13 -13 0 -24 -5 -24 -10 0 -6 -5 -4 -10 4 -5 8
-10 10 -10 5z m44 -18 c-3 -9 5 -13 25 -13 17 0 33 6 36 14 5 12 9 12 25 -3
13 -12 24 -15 32 -9 20 15 51 10 53 -7 2 -9 -3 -16 -11 -16 -7 0 -11 4 -8 9 3
4 1 8 -4 8 -5 0 -15 -13 -22 -30 -14 -33 -12 -32 -53 -34 -26 -2 -27 -1 -11
11 22 16 38 17 28 1 -4 -7 -3 -8 4 -4 6 4 9 13 5 22 -3 9 0 14 7 12 7 -2 15 4
17 12 3 10 2 11 -4 4 -4 -6 -16 -10 -26 -8 -11 1 -14 -2 -10 -9 4 -7 -5 -4
-20 6 -15 9 -27 13 -27 7 0 -5 5 -10 12 -10 16 0 1 -13 -18 -16 -10 -2 -14 3
-10 11 3 8 0 17 -6 21 -6 4 -8 3 -4 -4 3 -6 2 -13 -3 -16 -5 -4 -12 -2 -16 4
-4 6 -12 7 -18 3 -7 -4 -6 0 2 10 7 9 10 17 5 17 -5 0 -2 5 6 10 20 13 20 12
14 -3z m236 -7 c0 -11 54 -7 62 5 12 16 29 -8 18 -25 -8 -13 -10 -13 -10 -1 0
11 -4 10 -13 -4 -10 -13 -16 -15 -21 -6 -4 6 -13 8 -19 4 -22 -14 -37 -11 -47
7 -5 9 -7 19 -5 22 8 7 35 5 35 -2z m-178 -56 c-28 -20 -28 -34 1 -31 23 2 32
-23 10 -30 -11 -4 -19 3 -49 42 -15 20 -15 19 -5 -2 6 -12 7 -24 2 -27 -5 -3
-11 2 -13 12 -8 29 -4 37 19 37 12 0 25 3 29 8 4 4 12 7 18 7 6 0 0 -7 -12
-16z m23 -84 c-3 -5 -10 -10 -16 -10 -5 0 -9 5 -9 10 0 6 7 10 16 10 8 0 12
-4 9 -10z"/>
<path d="M1924 1301 c4 -5 0 -11 -6 -14 -7 -3 -3 -4 9 -4 17 1 19 4 11 14 -12
15 -22 18 -14 4z"/>
<path d="M2066 1286 c5 -13 29 -16 36 -5 2 2 1 3 -1 2 -2 -1 -12 2 -22 8 -14
7 -17 6 -13 -5z"/>
<path d="M2225 1305 c1 -16 8 -31 15 -33 9 -3 11 1 7 14 -7 18 -6 17 8 -1 9
-11 12 -21 7 -23 -5 -1 4 -17 19 -33 31 -34 40 -60 12 -38 -13 11 -13 8 2 -13
20 -27 45 -37 45 -18 0 6 -3 9 -7 9 -20 -3 -27 2 -13 10 10 7 19 2 32 -20 10
-17 16 -34 13 -40 -4 -5 -2 -9 4 -9 18 0 17 24 -2 43 -10 10 -16 21 -13 25 4
3 15 -4 26 -16 12 -12 26 -22 33 -22 6 0 1 7 -11 16 -12 8 -22 20 -22 26 0 7
5 6 14 -1 11 -10 14 -9 12 1 -1 7 -5 19 -9 25 -5 7 -2 22 7 34 8 12 12 29 9
38 -3 9 4 6 17 -9 20 -23 20 -23 10 -2 -6 12 -8 22 -4 22 3 0 15 -10 26 -22
11 -13 17 -18 14 -11 -4 6 0 13 6 16 7 2 9 8 5 13 -4 5 -13 2 -18 -6 -9 -13
-10 -13 -6 0 2 8 13 16 25 16 18 1 20 -2 11 -18 -8 -15 -8 -23 1 -32 8 -8 9
-6 4 9 -7 18 -6 19 12 5 15 -11 16 -11 7 0 -15 16 -17 30 -5 30 5 0 15 -11 22
-24 7 -14 19 -27 26 -30 20 -8 17 0 -7 23 -24 22 -19 40 10 38 15 -1 17 -5 11
-18 -11 -20 -3 -30 18 -21 15 5 16 4 2 -13 -9 -11 -10 -16 -2 -11 6 4 12 2 12
-3 0 -6 -6 -11 -12 -11 -10 0 -9 -3 1 -9 9 -6 10 -11 2 -15 -15 -10 -4 -26 14
-20 10 4 12 0 8 -16 -5 -20 -6 -20 -27 -3 l-21 18 19 -22 c19 -23 36 -22 36 3
0 8 5 14 10 14 6 0 10 5 10 11 0 5 -4 8 -8 5 -4 -2 -13 4 -20 15 -13 20 -3 26
14 9 6 -6 15 -5 24 1 13 9 12 10 -2 5 -10 -3 -20 -1 -23 4 -4 6 0 10 8 10 20
0 30 29 16 46 -16 20 -32 17 -24 -3 5 -15 4 -16 -7 -5 -11 11 -10 16 6 28 16
11 22 11 29 1 6 -8 7 -6 3 6 -3 10 -6 22 -6 25 0 4 -5 0 -10 -8 -9 -13 -11
-13 -20 0 -7 11 -10 11 -10 2 0 -7 -5 -10 -12 -6 -7 4 -8 3 -4 -5 10 -15 -46
-3 -56 13 -5 7 -8 7 -8 -2 0 -7 -5 -10 -12 -6 -7 4 -8 3 -4 -5 10 -15 -46 -3
-56 13 -5 7 -8 6 -8 -4 0 -13 -2 -13 -11 0 -9 12 -10 12 -5 -3 4 -12 2 -17 -6
-14 -7 2 -12 9 -11 14 1 5 -4 10 -12 10 -8 0 -12 -4 -9 -9 3 -4 0 -8 -5 -8 -6
0 -11 6 -11 13 0 8 -4 7 -10 -3 -9 -13 -10 -13 -10 0 0 9 -3 11 -8 5 -8 -13
-22 -13 -41 -1 -10 6 -12 5 -7 -2 5 -8 -2 -12 -18 -12 -14 0 -26 -5 -26 -11 0
-5 -5 -7 -10 -4 -6 4 -8 10 -5 15 3 5 0 12 -6 16 -8 4 -9 3 -5 -4 4 -7 3 -12
-3 -12 -5 0 -12 6 -14 13 -3 6 -4 -1 -2 -18z m200 -6 c3 -3 -1 -6 -7 -7 -7 -1
-24 -3 -38 -4 -14 -2 -28 -7 -32 -13 -5 -6 -8 -4 -8 5 0 13 -1 13 -10 0 -9
-13 -10 -13 -10 0 0 13 -1 13 -10 0 -9 -13 -11 -13 -20 0 -7 12 -9 10 -7 -8 1
-13 6 -21 14 -18 8 3 10 -1 6 -12 -5 -14 -4 -14 9 1 13 18 15 18 29 1 13 -16
12 -17 -4 -11 -10 4 -16 3 -12 -2 3 -5 2 -11 -2 -14 -5 -2 -3 -2 4 -1 7 2 10
-3 6 -13 -5 -13 -12 -9 -33 17 -30 37 -35 77 -8 72 9 -1 19 1 22 6 5 9 102 9
111 1z m195 -4 c-10 -12 -10 -18 0 -30 14 -17 34 -10 24 8 -5 8 -3 8 7 0 8 -8
9 -16 4 -22 -17 -16 -39 -17 -40 -1 0 8 -8 14 -18 14 -22 -2 -22 1 5 26 25 23
36 27 18 5z m-213 -30 c5 -4 2 -5 -6 0 -11 6 -13 4 -8 -7 3 -9 1 -20 -5 -26
-8 -8 -8 -15 0 -24 9 -11 5 -14 -19 -16 -16 -1 -29 2 -29 8 0 5 4 10 9 10 13
0 8 25 -9 46 -8 10 -10 15 -5 12 6 -4 17 -3 24 2 16 9 37 7 48 -5z"/>
<path d="M2359 1246 c6 -7 7 -17 3 -22 -4 -4 1 -2 11 5 19 15 16 24 -9 27 -11
2 -12 -1 -5 -10z"/>
<path d="M2720 1316 c20 -20 10 -29 -12 -10 -22 19 -22 19 -8 0 14 -18 13 -19
-5 -13 l-20 7 20 -16 c11 -8 19 -19 18 -24 -3 -9 23 -7 33 3 4 4 12 7 18 7 6
0 5 -5 -2 -12 -9 -9 -8 -16 5 -30 9 -10 22 -18 29 -18 7 0 16 -9 19 -20 3 -11
11 -20 17 -20 6 0 8 3 5 7 -8 8 11 33 25 33 6 0 5 -6 -2 -15 -6 -8 -9 -18 -6
-24 4 -5 -2 -12 -11 -14 -10 -3 -2 -5 17 -5 61 1 69 -2 75 -22 3 -11 11 -20
16 -20 6 0 7 5 4 10 -3 6 -1 10 5 10 7 0 10 7 7 15 -4 8 -2 17 2 20 15 9 22
-27 9 -43 -10 -12 -10 -14 0 -8 12 7 16 -4 12 -34 -1 -8 0 -13 2 -10 2 3 10
14 18 24 10 13 10 17 3 12 -20 -11 -15 12 5 24 16 11 16 11 -1 6 -15 -5 -17
-2 -11 17 4 12 7 28 7 35 0 13 10 16 20 5 4 -3 2 -13 -5 -20 -9 -11 -9 -16 2
-23 16 -10 42 -2 34 11 -3 5 3 9 13 10 13 0 14 2 4 6 -8 3 -20 -2 -27 -11 -7
-10 -15 -13 -18 -7 -9 13 33 41 51 34 12 -5 14 -1 8 18 -7 21 -6 22 9 10 21
-18 33 -6 15 15 -12 15 -11 16 11 10 19 -6 21 -5 10 3 -17 12 -16 13 27 15 18
1 36 6 40 10 4 5 3 6 -4 2 -6 -3 -14 -2 -18 4 -3 5 0 10 7 10 10 0 10 2 0 9
-8 4 -14 12 -15 17 -1 5 -8 9 -15 10 -10 2 -11 -1 -1 -12 11 -13 8 -14 -17 -8
-16 4 -32 12 -36 18 -5 7 -8 7 -8 -2 0 -7 -5 -10 -12 -6 -7 4 -8 3 -4 -4 4 -7
1 -12 -8 -12 -10 0 -13 6 -10 18 4 13 3 14 -4 4 -5 -8 -13 -14 -17 -14 -4 0
-12 6 -17 14 -6 9 -7 6 -3 -10 6 -22 5 -22 -17 -10 -12 7 -26 18 -30 23 -5 6
-8 5 -8 -3 0 -7 -4 -11 -9 -8 -10 7 -9 -6 3 -42 6 -18 13 -21 29 -16 22 6 22
6 2 -9 -12 -10 -24 -12 -31 -6 -7 5 -11 4 -11 -6 0 -8 4 -12 9 -9 4 3 8 0 8
-5 0 -6 -5 -11 -12 -11 -9 0 -9 -3 0 -12 17 -17 15 -33 -2 -19 -10 9 -15 8
-20 -4 -7 -20 -33 -19 -45 2 -5 10 -13 14 -17 10 -5 -5 -2 -12 6 -17 9 -6 10
-10 3 -10 -20 0 -27 22 -10 35 14 10 14 12 -2 22 -19 12 -25 46 -7 40 6 -3 10
-10 8 -16 -1 -7 3 -9 9 -6 8 5 8 10 0 18 -14 14 -14 37 -1 37 6 0 10 -7 10
-17 0 -9 3 -13 6 -10 4 4 1 20 -6 37 -8 20 -16 27 -20 20 -6 -9 -9 -9 -15 -1
-5 9 -10 9 -21 0 -7 -6 -11 -15 -8 -20 3 -5 1 -9 -4 -9 -17 0 -22 13 -9 29 11
14 10 14 -5 2 -15 -11 -18 -11 -18 0 0 8 -4 7 -13 -5 -12 -16 -53 -13 -42 3 2
4 -3 8 -11 8 -10 0 -11 -4 -4 -11z m155 -8 c5 4 -1 -7 -13 -24 -12 -17 -18
-35 -14 -39 4 -5 2 -5 -4 -2 -15 9 -27 -20 -12 -29 7 -4 8 -3 4 4 -4 7 -2 12
3 12 16 0 13 -16 -6 -31 -9 -8 -14 -9 -10 -3 3 6 -9 18 -29 28 -29 13 -34 19
-24 30 15 18 -5 32 -24 17 -10 -8 -17 -7 -27 6 -8 9 -9 14 -2 10 6 -4 14 -3
18 2 3 6 12 8 19 5 8 -3 17 0 21 6 5 8 15 4 31 -11 13 -13 25 -17 25 -11 1 7
3 17 4 22 1 6 3 13 4 16 0 4 7 1 14 -5 8 -6 18 -7 22 -3z m125 -12 c0 4 5 3
11 -3 14 -14 42 -5 32 10 -3 6 -1 7 5 3 14 -8 4 -36 -11 -33 -7 1 -11 -8 -11
-20 1 -21 -7 -28 -29 -24 -5 1 -6 -3 -2 -9 4 -6 16 -5 35 5 26 14 29 14 24 0
-4 -8 -2 -15 3 -15 5 0 9 9 10 20 2 17 -2 20 -20 14 -18 -5 -20 -4 -9 7 7 7
22 14 34 14 12 0 23 7 25 15 3 9 1 11 -4 5 -4 -5 -15 -11 -23 -13 -8 -1 -4 6
10 17 15 12 30 16 40 12 8 -5 25 -7 37 -6 14 1 19 -3 16 -12 -6 -15 -23 -18
-23 -4 0 5 -11 0 -24 -12 -19 -17 -22 -25 -13 -37 9 -12 8 -13 -2 -3 -7 6 -20
9 -27 6 -12 -4 -12 -8 -2 -21 7 -9 8 -13 3 -10 -6 4 -17 3 -25 -2 -9 -5 -19
-5 -27 1 -14 12 -36 2 -28 -12 4 -5 2 -9 -4 -9 -6 0 -8 -8 -5 -17 3 -10 -2 -6
-11 10 -12 21 -13 32 -5 47 6 11 15 18 19 15 5 -3 11 2 15 10 6 16 -9 29 -23
20 -11 -6 -33 29 -24 39 3 3 12 1 20 -5 7 -6 13 -8 13 -3z m-45 -143 c-2 -10
-4 -20 -4 -23 -1 -3 -5 2 -10 10 -10 15 -6 30 9 30 4 0 7 -8 5 -17z"/>
<path d="M2842 1305 c4 -4 3 -16 -3 -27 -11 -20 -11 -20 -34 2 -13 13 -25 17
-29 11 -4 -5 -1 -13 5 -16 5 -4 8 -13 5 -21 -9 -22 14 -27 36 -8 30 28 40 51
26 60 -7 4 -10 4 -6 -1z m-28 -56 c-3 -5 -11 -9 -17 -8 -8 0 -8 2 1 6 10 4 9
10 -5 27 l-18 21 22 -19 c13 -10 20 -23 17 -27z"/>
<path d="M2976 1287 c3 -10 9 -15 12 -12 3 3 0 11 -7 18 -10 9 -11 8 -5 -6z"/>
<path d="M3105 1289 c4 -6 -1 -20 -12 -31 l-18 -22 27 20 c32 22 34 30 12 38
-9 3 -12 2 -9 -5z"/>
<path d="M2755 1320 c-3 -5 -1 -10 4 -10 6 0 11 5 11 10 0 6 -2 10 -4 10 -3 0
-8 -4 -11 -10z"/>
<path d="M1355 1279 c-4 -6 -5 -12 -2 -15 2 -3 7 2 10 11 7 17 1 20 -8 4z"/>
<path d="M2550 1280 c0 -5 5 -10 10 -10 6 0 10 5 10 10 0 6 -4 10 -10 10 -5 0
-10 -4 -10 -10z"/>
<path d="M1335 1240 c3 -5 -1 -10 -9 -10 -9 0 -16 -5 -16 -10 0 -7 6 -7 20 0
21 11 27 30 9 30 -5 0 -7 -4 -4 -10z"/>
<path d="M1600 1211 c0 -6 4 -13 10 -16 6 -3 7 1 4 9 -7 18 -14 21 -14 7z"/>
<path d="M2118 1213 c7 -3 16 -2 19 1 4 3 -2 6 -13 5 -11 0 -14 -3 -6 -6z"/>
<path d="M2182 1200 c-7 -11 -18 -17 -27 -14 -8 4 -15 2 -16 -2 0 -5 -2 -17
-4 -26 -2 -10 2 -21 7 -25 7 -4 8 -1 3 7 -6 10 -3 12 13 8 12 -4 20 -2 16 3
-3 5 -12 9 -20 9 -8 0 -13 4 -9 10 3 5 11 7 18 4 11 -4 43 33 35 42 -2 1 -9
-6 -16 -16z"/>
<path d="M2916 1183 c-6 -14 -5 -15 5 -6 7 7 10 15 7 18 -3 3 -9 -2 -12 -12z"/>
<path d="M1295 1180 c-3 -5 -1 -10 4 -10 6 0 11 5 11 10 0 6 -2 10 -4 10 -3 0
-8 -4 -11 -10z"/>
<path d="M1730 1175 c-15 -18 3 -46 29 -44 13 1 13 2 -2 6 -9 2 -14 9 -11 15
4 7 2 8 -4 4 -7 -4 -12 -3 -12 3 0 5 6 11 13 14 6 2 9 7 6 11 -3 4 -12 0 -19
-9z"/>
<path d="M2495 1180 c3 -5 8 -10 11 -10 2 0 4 5 4 10 0 6 -5 10 -11 10 -5 0
-7 -4 -4 -10z"/>
<path d="M1184 1155 c11 -8 24 -15 30 -15 5 0 1 7 -10 15 -10 8 -23 14 -29 14
-5 0 -1 -6 9 -14z"/>
<path d="M2275 1161 c-6 -11 13 -26 22 -17 4 3 1 6 -6 6 -7 0 -9 5 -6 10 3 6
4 10 1 10 -3 0 -7 -4 -11 -9z"/>
<path d="M2479 1165 c-7 -58 -7 -69 0 -56 5 8 6 21 3 30 -5 14 -4 14 11 2 13
-11 15 -17 6 -28 -7 -7 -10 -16 -7 -19 3 -2 13 7 23 22 9 15 12 23 5 19 -8 -5
-11 -3 -8 6 3 8 11 13 17 11 7 -1 10 2 6 8 -5 8 -11 7 -22 -1 -12 -10 -16 -10
-24 2 -5 8 -9 10 -10 4z"/>
<path d="M2655 1159 c-4 -6 -5 -12 -2 -15 2 -3 7 2 10 11 7 17 1 20 -8 4z"/>
<path d="M1068 1153 c6 -2 10 -9 7 -14 -4 -5 1 -6 10 -2 13 5 14 7 3 14 -7 5
-17 8 -23 8 -5 0 -4 -3 3 -6z"/>
<path d="M1662 1153 c-10 -4 -10 -8 0 -21 11 -13 10 -15 -4 -9 -10 3 -20 3
-22 -2 -3 -4 8 -7 25 -7 29 0 39 11 17 19 -7 2 -10 8 -5 13 4 4 15 0 24 -9 13
-13 14 -19 3 -31 -7 -9 -8 -16 -2 -16 5 0 12 7 16 15 3 9 12 12 23 9 14 -4 14
-3 -2 7 -11 7 -26 19 -33 26 -14 14 -19 15 -40 6z"/>
<path d="M1835 1150 c3 -5 8 -10 11 -10 2 0 4 5 4 10 0 6 -5 10 -11 10 -5 0
-7 -4 -4 -10z"/>
<path d="M1949 1137 c-9 -7 -14 -18 -11 -26 3 -8 0 -11 -6 -8 -5 4 -15 0 -22
-9 -9 -10 -15 -12 -20 -4 -5 8 -9 7 -13 -3 -7 -18 14 -17 35 1 8 6 18 9 21 5
4 -3 10 3 14 13 3 10 11 22 17 26 6 4 8 9 6 12 -3 2 -12 -1 -21 -7z"/>
<path d="M920 1118 c-14 -11 -24 -25 -22 -29 1 -5 -7 -9 -17 -9 -11 0 -22 -4
-25 -9 -4 -6 5 -6 21 -2 16 5 27 13 26 20 -3 10 5 13 25 9 4 0 6 -11 5 -22 -3
-20 -2 -20 6 -1 5 12 5 25 -1 32 -6 7 -3 15 9 22 10 6 14 10 8 10 -5 0 -21 -9
-35 -21z"/>
<path d="M1114 1115 c1 -11 7 -19 15 -17 8 2 11 -3 8 -11 -3 -7 1 -14 8 -14
10 0 11 5 4 19 -6 10 -14 16 -19 13 -5 -3 -10 3 -13 12 -3 14 -4 13 -3 -2z"/>
<path d="M1331 1121 c-11 -11 -23 -16 -27 -13 -4 4 -4 1 1 -7 7 -11 11 -11 22
5 13 18 15 18 24 1 6 -9 15 -14 21 -11 7 5 9 1 5 -9 -3 -10 -2 -17 4 -17 6 0
9 7 7 16 -2 8 -7 14 -12 14 -15 -3 -26 24 -13 32 9 6 9 8 0 8 -7 0 -22 -9 -32
-19z"/>
<path d="M1381 1135 c0 -5 6 -18 14 -29 13 -18 14 -18 12 2 0 11 -4 19 -8 16
-4 -2 -10 2 -12 8 -3 7 -6 9 -6 3z"/>
<path d="M2310 1129 c0 -5 -4 -8 -9 -4 -5 3 -12 2 -15 -3 -2 -4 4 -9 15 -9 10
-1 19 5 19 13 0 8 -2 14 -5 14 -3 0 -5 -5 -5 -11z"/>
<path d="M2335 1130 c3 -5 8 -10 11 -10 2 0 4 5 4 10 0 6 -5 10 -11 10 -5 0
-7 -4 -4 -10z"/>
<path d="M2856 1123 c-6 -14 -5 -15 5 -6 7 7 10 15 7 18 -3 3 -9 -2 -12 -12z"/>
<path d="M2889 1133 c-1 -5 -1 -11 0 -15 0 -5 -3 -8 -7 -8 -5 0 -9 -7 -9 -16
0 -15 2 -14 13 1 8 10 11 22 8 26 -3 5 -1 9 4 9 19 0 21 -14 7 -37 -9 -13 -12
-23 -8 -23 5 0 2 -4 -6 -9 -8 -5 -16 -17 -17 -25 -1 -9 2 -14 7 -10 5 3 7 9 4
14 -3 4 2 11 11 14 9 4 14 9 11 13 -4 3 0 15 8 26 11 15 12 24 3 34 -12 14
-27 17 -29 6z"/>
<path d="M870 1120 c0 -5 5 -10 10 -10 6 0 10 5 10 10 0 6 -4 10 -10 10 -5 0
-10 -4 -10 -10z"/>
<path d="M973 1118 c3 -9 1 -19 -6 -22 -9 -3 -9 -5 0 -5 18 -1 23 13 11 29 -8
12 -9 12 -5 -2z"/>
<path d="M1000 1120 c0 -5 5 -10 11 -10 5 0 7 -5 3 -12 -4 -7 -3 -8 5 -4 9 6
9 11 0 22 -14 17 -19 18 -19 4z"/>
<path d="M1036 1118 c3 -5 10 -6 15 -3 13 9 11 12 -6 12 -8 0 -12 -4 -9 -9z"/>
<path d="M1081 1113 c-5 -10 -13 -17 -18 -15 -4 2 -9 -4 -9 -13 -2 -13 -1 -13
3 0 2 8 8 13 13 10 5 -3 14 4 20 15 13 24 5 27 -9 3z"/>
<path d="M1857 1123 c10 -3 10 -10 2 -26 -10 -21 -9 -21 5 -3 16 20 13 37 -7
35 -9 0 -9 -2 0 -6z"/>
<path d="M2395 1120 c-3 -5 -1 -10 4 -10 6 0 11 5 11 10 0 6 -2 10 -4 10 -3 0
-8 -4 -11 -10z"/>
<path d="M2341 1094 c11 -13 9 -15 -17 -9 -27 5 -28 5 -5 -5 20 -9 28 -7 40 6
9 9 10 14 4 10 -7 -4 -13 -2 -13 3 0 6 -5 11 -11 11 -8 0 -7 -5 2 -16z"/>
<path d="M2414 1095 c-3 -8 -4 -20 -1 -27 3 -7 6 -3 6 9 1 16 5 21 17 16 13
-5 13 -7 2 -14 -7 -5 -8 -9 -3 -9 6 0 16 4 23 8 9 6 6 12 -13 20 -21 10 -27 9
-31 -3z"/>
<path d="M1639 1098 c-5 -18 -6 -38 -1 -34 7 8 12 36 6 36 -2 0 -4 -1 -5 -2z"/>
<path d="M1670 1091 c0 -10 19 -25 25 -20 1 2 -3 10 -11 17 -8 7 -14 8 -14 3z"/>
<path d="M1720 1094 c0 -6 7 -19 16 -30 14 -18 14 -18 3 6 -14 31 -19 36 -19
24z"/>
<path d="M1955 1091 c-3 -5 -2 -12 3 -15 5 -3 9 1 9 9 0 17 -3 19 -12 6z"/>
<path d="M2276 1091 c-3 -4 1 -16 8 -26 10 -14 15 -15 21 -5 5 9 4 11 -3 6
-11 -6 -16 6 -13 27 1 10 -7 9 -13 -2z"/>
<path d="M2381 1082 c-1 -13 -5 -21 -10 -17 -15 9 -25 -15 -12 -28 9 -9 10 -7
5 7 -5 14 -4 17 4 12 14 -8 27 17 19 36 -3 7 -6 3 -6 -10z"/>
<path d="M2926 1085 c-9 -26 -7 -32 5 -12 6 10 9 21 6 23 -2 3 -7 -2 -11 -11z"/>
<path d="M2958 1093 c7 -3 16 -2 19 1 4 3 -2 6 -13 5 -11 0 -14 -3 -6 -6z"/>
<path d="M990 1080 c0 -5 5 -10 11 -10 5 0 7 5 4 10 -3 6 -8 10 -11 10 -2 0
-4 -4 -4 -10z"/>
<path d="M1025 1079 c-4 -6 -5 -12 -2 -15 2 -3 7 2 10 11 7 17 1 20 -8 4z"/>
<path d="M1080 1075 c-19 -22 -8 -25 13 -3 9 10 13 18 8 18 -5 0 -14 -7 -21
-15z"/>
<path d="M2510 1076 c0 -8 7 -17 16 -20 13 -5 14 -4 6 7 -7 8 -9 17 -5 20 3 4
1 7 -5 7 -7 0 -12 -6 -12 -14z"/>
<path d="M2853 1080 c2 -8 -3 -20 -11 -26 -16 -12 -9 -34 11 -34 7 0 6 4 -3
10 -13 8 -13 11 2 22 13 10 15 17 7 28 -9 13 -10 13 -6 0z"/>
<path d="M1917 1073 c-4 -3 -7 -11 -7 -17 0 -6 5 -5 12 2 6 6 9 14 7 17 -3 3
-9 2 -12 -2z"/>
<path d="M2467 1068 c-13 -10 -14 -17 -6 -28 9 -13 10 -12 5 3 -3 11 0 17 9
17 8 0 15 5 15 10 0 13 -3 13 -23 -2z"/>
<path d="M2950 1069 c0 -5 5 -7 10 -4 9 6 14 -8 11 -27 0 -5 4 -8 9 -8 13 0
13 6 0 31 -11 20 -30 26 -30 8z"/>
<path d="M950 1058 c0 -4 4 -8 9 -8 6 0 12 4 15 8 3 5 -1 9 -9 9 -8 0 -15 -4
-15 -9z"/>
<path d="M1094 1059 c-4 -8 -3 -9 4 -5 16 10 15 -6 0 -24 -11 -12 -10 -12 7 0
11 8 21 15 23 16 1 1 -4 7 -12 13 -11 9 -16 9 -22 0z"/>
<path d="M1310 1059 c0 -5 5 -7 10 -4 6 3 10 8 10 11 0 2 -4 4 -10 4 -5 0 -10
-5 -10 -11z"/>
<path d="M1340 1066 c0 -2 7 -7 16 -10 8 -3 12 -2 9 4 -6 10 -25 14 -25 6z"/>
<path d="M1655 1061 c-6 -11 13 -26 22 -17 4 3 1 6 -6 6 -7 0 -9 5 -6 10 3 6
4 10 1 10 -3 0 -7 -4 -11 -9z"/>
<path d="M1150 1053 c5 -2 8 -9 4 -14 -3 -5 0 -9 6 -9 15 0 7 23 -8 26 -7 1
-8 0 -2 -3z"/>
<path d="M1883 1037 c-9 -18 -8 -24 2 -24 8 0 11 7 7 15 -3 10 -1 13 6 8 8 -5
10 -2 6 8 -8 21 -9 20 -21 -7z"/>
<path d="M2315 1050 c-3 -5 -3 -10 2 -10 4 0 1 -5 -7 -10 -13 -8 -13 -10 2
-10 11 0 16 7 15 20 -1 23 -3 24 -12 10z"/>
<path d="M850 1041 c0 -6 4 -13 10 -16 6 -3 7 1 4 9 -7 18 -14 21 -14 7z"/>
<path d="M930 1041 c0 -6 4 -13 10 -16 6 -3 7 1 4 9 -7 18 -14 21 -14 7z"/>
<path d="M1335 1040 c3 -5 8 -10 11 -10 2 0 4 5 4 10 0 6 -5 10 -11 10 -5 0
-7 -4 -4 -10z"/>
<path d="M1704 1038 c-4 -7 -4 -10 1 -6 4 4 13 0 20 -9 9 -13 14 -13 20 -3 5
9 4 11 -3 6 -7 -4 -12 -1 -12 8 0 19 -16 21 -26 4z"/>
<path d="M1925 1040 c-3 -6 1 -7 9 -4 18 7 21 14 7 14 -6 0 -13 -4 -16 -10z"/>
<path d="M2385 1039 c-4 -6 -4 -13 -1 -16 3 -4 6 -1 6 6 0 7 5 9 10 6 6 -3 10
-1 10 4 0 14 -17 14 -25 0z"/>
<path d="M2490 1042 c0 -4 10 -9 22 -9 18 -2 20 0 8 7 -18 12 -30 13 -30 2z"/>
<path d="M2916 1038 c3 -4 0 -8 -7 -8 -7 0 -10 -3 -6 -6 3 -3 16 1 28 9 22 16
22 16 1 14 -11 0 -18 -5 -16 -9z"/>
<path d="M1120 1020 c-9 -6 -10 -10 -3 -10 6 0 15 5 18 10 8 12 4 12 -15 0z"/>
<path d="M1399 1028 c-5 -14 -4 -60 1 -63 4 -3 6 9 5 26 -2 23 1 29 12 25 8
-3 11 -1 8 4 -6 9 -23 14 -26 8z"/>
<path d="M1670 1020 c0 -5 5 -10 10 -10 6 0 10 5 10 10 0 6 -4 10 -10 10 -5 0
-10 -4 -10 -10z"/>
<path d="M1950 1004 c5 -12 7 -25 4 -28 -2 -3 -1 -4 3 -1 12 9 9 52 -3 52 -9
0 -10 -7 -4 -23z"/>
<path d="M2626 1015 c5 -11 4 -16 -3 -12 -5 3 -10 0 -10 -8 0 -12 3 -12 16 -3
9 7 17 13 19 14 1 1 -4 7 -13 14 -13 11 -14 10 -9 -5z"/>
<path d="M2935 1020 c-4 -6 1 -7 12 -3 16 6 17 5 3 -12 -14 -17 -14 -17 7 -4
16 9 19 16 10 21 -16 10 -25 10 -32 -2z"/>
<path d="M2996 1013 c-6 -14 -5 -15 5 -6 7 7 10 15 7 18 -3 3 -9 -2 -12 -12z"/>
<path d="M2355 1009 c-4 -6 -5 -12 -2 -15 2 -3 7 2 10 11 7 17 1 20 -8 4z"/>
<path d="M895 1000 c-2 -3 5 -7 16 -7 10 -1 19 2 19 6 0 9 -29 10 -35 1z"/>
<path d="M1200 1000 c-9 -6 -10 -10 -3 -10 6 0 15 5 18 10 8 12 4 12 -15 0z"/>
<path d="M1306 998 c3 -4 14 -6 24 -5 31 5 32 13 1 12 -16 0 -27 -3 -25 -7z"/>
<path d="M2516 1002 c-3 -5 1 -9 9 -9 8 0 12 4 9 9 -3 4 -7 8 -9 8 -2 0 -6 -4
-9 -8z"/>
<path d="M2840 1000 c-8 -5 -10 -10 -5 -10 6 0 17 5 25 10 8 5 11 10 5 10 -5
0 -17 -5 -25 -10z"/>
<path d="M2895 1000 c3 -5 8 -10 11 -10 2 0 4 5 4 10 0 6 -5 10 -11 10 -5 0
-7 -4 -4 -10z"/>
<path d="M1109 983 c-13 -16 -12 -17 4 -4 16 13 21 21 13 21 -2 0 -10 -8 -17
-17z"/>
<path d="M1642 984 c10 -10 20 -16 22 -13 3 3 -5 11 -17 18 -21 13 -21 12 -5
-5z"/>
<path d="M1427 979 c7 -7 15 -10 18 -7 3 3 -2 9 -12 12 -14 6 -15 5 -6 -5z"/>
<path d="M1879 973 c-13 -16 -12 -17 4 -4 16 13 21 21 13 21 -2 0 -10 -8 -17
-17z"/>
<path d="M1910 986 c0 -2 7 -7 16 -10 8 -3 12 -2 9 4 -6 10 -25 14 -25 6z"/>
<path d="M2640 980 c-9 -6 -10 -10 -3 -10 6 0 15 5 18 10 8 12 4 12 -15 0z"/>
<path d="M2988 983 c7 -3 16 -2 19 1 4 3 -2 6 -13 5 -11 0 -14 -3 -6 -6z"/>
<path d="M2864 958 c20 -30 27 -35 24 -15 -2 6 2 11 8 10 6 -1 11 5 11 12 0
11 -4 12 -14 4 -10 -9 -17 -8 -30 2 -14 12 -14 10 1 -13z"/>
<path d="M3014 969 c-3 -6 -2 -15 3 -20 5 -5 9 -1 9 11 0 23 -2 24 -12 9z"/>
<path d="M3053 965 c0 -8 4 -15 9 -15 4 0 8 4 8 9 0 6 -4 12 -8 15 -5 3 -9 -1
-9 -9z"/>
<path d="M935 960 c3 -5 8 -10 11 -10 2 0 4 5 4 10 0 6 -5 10 -11 10 -5 0 -7
-4 -4 -10z"/>
<path d="M1899 953 c-13 -16 -12 -17 4 -4 16 13 21 21 13 21 -2 0 -10 -8 -17
-17z"/>
<path d="M2271 967 c2 -1 13 -9 24 -17 19 -14 19 -14 6 3 -7 9 -18 17 -24 17
-6 0 -8 -1 -6 -3z"/>
<path d="M2830 956 c0 -2 8 -10 18 -17 15 -13 16 -12 3 4 -13 16 -21 21 -21
13z"/>
<path d="M1115 941 c-3 -5 -2 -12 3 -15 5 -3 9 1 9 9 0 17 -3 19 -12 6z"/>
<path d="M1193 935 c0 -8 4 -12 9 -9 5 3 6 10 3 15 -9 13 -12 11 -12 -6z"/>
<path d="M2810 936 c0 -2 8 -10 18 -17 15 -13 16 -12 3 4 -13 16 -21 21 -21
13z"/>
<path d="M990 921 c0 -6 4 -13 10 -16 6 -3 7 1 4 9 -7 18 -14 21 -14 7z"/>
<path d="M1155 920 c3 -5 8 -10 11 -10 2 0 4 5 4 10 0 6 -5 10 -11 10 -5 0 -7
-4 -4 -10z"/>
<path d="M1373 915 c0 -8 4 -12 9 -9 5 3 6 10 3 15 -9 13 -12 11 -12 -6z"/>
<path d="M2766 918 c3 -5 10 -6 15 -3 13 9 11 12 -6 12 -8 0 -12 -4 -9 -9z"/>
<path d="M2896 922 c-3 -5 1 -9 9 -9 8 0 12 4 9 9 -3 4 -7 8 -9 8 -2 0 -6 -4
-9 -8z"/>
<path d="M3066 921 c-3 -4 4 -7 14 -6 27 2 33 10 10 12 -11 1 -22 -2 -24 -6z"/>
<path d="M933 905 c0 -8 4 -12 9 -9 5 3 6 10 3 15 -9 13 -12 11 -12 -6z"/>
<path d="M2335 911 c-3 -5 -2 -12 3 -15 5 -3 9 1 9 9 0 17 -3 19 -12 6z"/>
<path d="M1025 900 c-3 -6 1 -7 9 -4 18 7 21 14 7 14 -6 0 -13 -4 -16 -10z"/>
<path d="M1575 900 c3 -5 8 -10 11 -10 2 0 4 5 4 10 0 6 -5 10 -11 10 -5 0 -7
-4 -4 -10z"/>
<path d="M1970 899 c0 -5 5 -7 10 -4 6 3 10 8 10 11 0 2 -4 4 -10 4 -5 0 -10
-5 -10 -11z"/>
<path d="M1875 889 c-4 -6 -5 -12 -2 -15 2 -3 7 2 10 11 7 17 1 20 -8 4z"/>
</g>
</svg>
